<svg version="1.1" id="Layer_1" xmlns="http://www.w3.org/2000/svg" xmlns:xlink="http://www.w3.org/1999/xlink" x="0px" y="0px"
	 width="100%" viewBox="0 0 500 500" enable-background="new 0 0 500 500" xml:space="preserve">
<path fill="#6D7275" opacity="1.000000" stroke="none" 
	d="
M260.000000,501.000000 
	C254.311966,501.000000 248.623917,501.000000 242.481171,500.685211 
	C241.800735,499.786774 241.743774,498.895081 241.324234,498.665283 
	C233.874191,494.584015 226.289246,490.742096 218.916412,486.528351 
	C207.375275,479.932312 196.009613,473.029999 184.499771,466.378296 
	C168.241287,456.982300 151.895752,447.737030 135.633301,438.347870 
	C126.461784,433.052612 117.422203,427.528778 108.249382,422.235840 
	C100.163521,417.570129 91.928719,413.162506 83.843369,408.495941 
	C72.607315,402.010864 61.775505,394.722504 50.151215,389.046600 
	C41.399830,384.773560 35.642601,378.647247 32.159828,369.552429 
	C32.209530,366.447723 32.011814,363.790283 32.010918,361.132812 
	C31.992857,307.378387 31.999134,253.623932 31.996548,199.869492 
	C31.995443,176.917358 31.985296,153.965210 32.247723,130.790649 
	C33.030331,129.008118 33.544476,127.447983 34.409943,125.772659 
	C35.152710,124.416618 35.544155,123.175766 35.957584,121.967728 
	C35.979565,122.000534 35.903805,121.978203 36.325584,122.203537 
	C36.825455,121.920570 36.903542,121.412270 36.985428,120.940285 
	C36.989227,120.976608 36.918186,120.959602 37.265705,121.277512 
	C38.061520,120.702995 38.509819,119.810577 38.973846,118.954758 
	C38.989578,118.991348 38.921482,118.950005 39.214413,119.288414 
	C40.329136,118.720787 41.150925,117.814743 41.984203,116.946457 
	C41.995689,116.984222 41.930500,116.939697 42.169830,117.306740 
	C44.593948,116.087128 46.778740,114.500473 48.977657,112.950974 
	C48.991787,112.988144 48.924534,112.945709 49.216621,113.318306 
	C50.008991,113.093803 50.509270,112.496704 51.003113,111.935837 
	C50.996681,111.972076 50.928108,111.945312 51.157585,112.269028 
	C51.887543,112.080956 52.388023,111.569183 53.249100,111.009369 
	C76.087860,97.947098 98.571831,84.942909 121.042091,71.915062 
	C135.502487,63.531181 149.919968,55.073120 164.397263,46.718597 
	C186.761154,33.812897 209.158340,20.964861 231.544952,8.098550 
	C235.688034,5.717390 239.847885,3.365432 244.000000,1.000000 
	C248.689255,1.000000 253.378494,1.000000 258.576843,1.346187 
	C266.059448,5.802280 273.032959,9.912187 280.141357,14.403650 
	C281.208221,14.838053 282.140198,14.890901 283.039429,14.965466 
	C283.006714,14.987185 283.031433,14.912601 282.796326,15.238077 
	C285.064819,16.690136 287.568420,17.816719 290.039093,18.965717 
	C290.006134,18.988131 290.034180,18.913528 289.790466,19.236031 
	C292.054626,20.685719 294.562469,21.812906 297.037506,22.964722 
	C297.004669,22.989353 297.036163,22.913549 296.785461,23.244122 
	C297.701172,24.075251 298.867584,24.575811 300.219452,25.358643 
	C301.930664,26.588984 303.432922,27.577469 304.986145,28.478109 
	C311.652527,32.343624 318.333862,36.183285 325.148407,40.410446 
	C326.215820,40.840733 327.144592,40.892937 328.040466,40.965904 
	C328.007538,40.986664 328.030975,40.912449 327.798828,41.226143 
	C332.401855,44.007622 337.237030,46.475410 342.039001,48.965897 
	C342.005829,48.988598 342.035706,48.913975 341.787720,49.224495 
	C342.675323,49.993118 343.810974,50.451221 345.128479,51.192032 
	C347.237183,52.665215 349.164001,53.855690 351.200623,55.429916 
	C352.230591,55.856869 353.150757,55.900066 354.038269,55.965069 
	C354.005676,55.986870 354.030762,55.912537 353.798309,56.238918 
	C356.068176,57.692020 358.570526,58.818741 361.040009,59.966457 
	C361.007172,59.987453 361.031799,59.913498 360.791443,60.237423 
	C363.057831,61.688637 365.564575,62.815922 368.038635,63.966072 
	C368.005951,63.988937 368.034180,63.914364 367.785828,64.235512 
	C370.048248,65.684685 372.559082,66.812714 375.037354,67.965027 
	C375.004852,67.989319 375.034821,67.913887 374.780304,68.248550 
	C376.375214,69.371246 378.224670,70.159271 380.041199,70.966934 
	C380.008270,70.986572 380.029999,70.913055 379.794983,71.238846 
	C382.063843,72.690704 384.567657,73.816765 387.038635,74.964767 
	C387.005737,74.986710 387.031799,74.912064 386.790802,75.253784 
	C387.731812,76.061951 388.913788,76.528404 390.045898,76.999107 
	C389.995972,77.003357 389.985992,76.903664 389.919800,77.269127 
	C390.551941,77.727303 391.250275,77.820007 392.138824,78.198280 
	C395.887939,80.662376 399.446808,82.840904 403.087189,85.360344 
	C411.429810,90.397644 419.670624,95.130470 427.974365,99.750198 
	C429.186951,100.424812 430.699585,100.560066 432.040161,100.966309 
	C432.006958,100.987732 432.034149,100.913506 431.792175,101.224083 
	C432.681152,101.989983 433.812103,102.445305 435.133972,103.192520 
	C440.888000,106.672714 446.451202,109.861023 452.160278,113.424759 
	C453.228363,113.848000 454.150604,113.895813 455.039978,113.964317 
	C455.007111,113.985008 455.028351,113.910324 454.784393,114.250885 
	C456.384857,115.375328 458.229279,116.159218 460.040405,116.969315 
	C460.007111,116.995529 460.046539,116.920517 459.755005,117.196098 
	C462.001678,119.631355 464.539856,121.791031 467.040558,123.972916 
	C467.003052,123.995125 467.060059,123.929131 466.707458,124.160660 
	C466.893707,124.908630 467.432526,125.425072 468.130676,126.238632 
	C468.871521,127.960579 469.453033,129.385406 469.669434,130.990295 
	C469.519836,133.765305 469.917877,136.359955 469.922546,138.955292 
	C469.968903,164.780075 469.865417,190.605499 470.028839,216.429321 
	C470.057983,221.035797 468.334961,223.832748 464.405090,226.003372 
	C455.384399,230.985916 446.527863,236.264877 437.583221,241.386063 
	C429.735077,245.879501 425.778046,243.553040 425.770508,234.429214 
	C425.751526,211.436768 425.752380,188.444290 425.769836,165.451843 
	C425.777771,154.978424 421.802612,146.778061 412.488892,141.435043 
	C362.739166,112.895088 313.003326,84.330940 263.271088,55.760502 
	C254.859436,50.928135 246.533554,51.140915 238.204239,55.943909 
	C188.661377,84.512199 139.126328,113.094070 89.558266,141.618561 
	C80.362244,146.910507 75.825317,154.570786 75.844231,165.295532 
	C75.944733,222.276672 75.949020,279.258179 75.839966,336.239288 
	C75.819077,347.154144 80.408783,354.879578 89.796806,360.289886 
	C138.915009,388.596588 188.005707,416.951569 237.014862,445.446442 
	C246.638870,451.042023 255.741302,450.860413 265.244934,445.356537 
	C313.871124,417.195465 362.523560,389.079132 411.248505,361.089386 
	C421.193268,355.376709 425.928101,347.158264 425.816711,335.764496 
	C425.668549,320.604279 425.889435,305.440186 425.711395,290.280609 
	C425.662079,286.082458 427.207184,283.490112 430.825439,281.479279 
	C440.124268,276.311493 449.265045,270.860199 458.501099,265.578339 
	C465.478485,261.588196 469.923553,264.013916 469.933990,271.884064 
	C469.973938,302.040771 469.947174,332.197571 469.951874,362.354340 
	C469.952240,364.626984 470.004120,366.899658 469.999298,369.535217 
	C468.310760,376.261658 464.807587,381.257172 459.070770,384.593018 
	C450.734406,389.440399 442.375519,394.249451 434.062866,399.137207 
	C425.418488,404.220062 416.867859,409.463806 408.186462,414.481934 
	C394.202240,422.565277 380.110840,430.463196 366.126343,438.546143 
	C350.165253,447.771545 334.313873,457.187012 318.337830,466.386169 
	C299.473663,477.248413 280.520691,487.956360 261.640564,498.791107 
	C260.911316,499.209564 260.538757,500.249603 260.000000,501.000000 
z"/>
<path fill="#9E2B25" opacity="1.000000" stroke="none" 
	d="
M216.050232,105.048187 
	C223.297531,100.891266 230.291367,97.016411 237.115570,92.862854 
	C246.125458,87.378983 255.178787,87.557297 264.108490,92.615021 
	C278.737335,100.900742 293.245209,109.402077 307.741882,117.918350 
	C313.798828,121.476601 313.881409,126.673828 307.861755,130.258240 
	C298.279968,135.963654 288.688110,141.692017 278.769958,146.764282 
	C276.328827,148.012711 272.388245,147.444077 269.533356,146.505280 
	C265.328156,145.122452 261.654633,142.086380 257.436523,140.787537 
	C251.025421,138.813416 244.574417,139.587463 238.626556,143.029221 
	C227.819626,149.282669 216.977280,155.476257 206.225006,161.822372 
	C199.813202,165.606720 199.888000,170.461868 206.362701,174.269638 
	C216.838028,180.430206 227.347382,186.534286 237.896744,192.567169 
	C246.774750,197.644257 255.626007,197.325043 264.454559,192.242523 
	C291.286621,176.795456 318.192139,161.475281 344.952881,145.905975 
	C349.096893,143.495010 352.378815,143.495468 356.445312,145.969330 
	C366.255463,151.937378 376.193970,157.718811 386.304047,163.160538 
	C392.577179,166.537064 394.701843,171.550842 394.684753,178.298187 
	C394.595276,213.626785 394.643463,248.955750 394.643555,284.284576 
	C394.643555,297.449585 394.502533,310.616669 394.699219,323.778717 
	C394.804474,330.823273 392.148804,335.636292 385.891510,339.208405 
	C345.411804,362.317230 305.038544,385.612854 264.671875,408.919006 
	C255.466827,414.233612 246.496185,414.342316 237.251160,408.991028 
	C196.622833,385.474030 155.963043,362.011078 115.253075,338.635803 
	C109.569382,335.372253 107.109215,330.836792 107.127502,324.354187 
	C107.226707,289.192261 107.157150,254.029907 107.186813,218.867737 
	C107.193893,210.478104 111.473404,207.939667 118.687035,212.029175 
	C127.810318,217.201263 136.803177,222.608231 146.003311,227.637665 
	C149.868851,229.750839 151.300339,232.529572 151.266663,236.875061 
	C151.110413,257.037964 151.392685,277.205536 151.100845,297.365387 
	C150.990158,305.011536 153.513840,310.028107 160.429245,313.913025 
	C185.826401,328.180511 210.997604,342.855164 236.118622,357.606842 
	C246.174774,363.512054 255.689117,363.499298 265.751099,357.566711 
	C292.423767,341.840515 319.238708,326.354309 346.083160,310.922394 
	C349.334564,309.053284 350.715515,307.082184 350.694916,303.151245 
	C350.515198,268.823242 350.596069,234.493881 350.578400,200.164917 
	C350.577393,198.230743 350.390198,196.296661 350.253296,193.662842 
	C334.703583,202.603622 319.854523,211.138199 305.008789,219.678528 
	C291.588959,227.398605 278.120605,235.036194 264.772949,242.879196 
	C255.595612,248.271744 246.626587,248.408478 237.382217,243.052567 
	C200.363327,221.605011 163.282227,200.264832 126.251938,178.836868 
	C117.063576,173.519958 117.219101,162.246155 126.681465,156.738586 
	C155.312042,140.074219 184.028366,123.557167 212.710327,106.981102 
	C213.719009,106.398163 214.717865,105.798233 216.050232,105.048187 
z"/>
</svg>